<svg xmlns="http://www.w3.org/2000/svg" viewBox="0 0 32 32" fill="none">
  <!-- Shield shape -->
  <path
    d="M16 2L4 7v9c0 7.5 5.1 14.5 12 16 6.9-1.5 12-8.5 12-16V7L16 2z"
    fill="none"
    stroke="#C9A84C"
    stroke-width="2"
    stroke-linejoin="round"
  />
  <!-- Inner shield glow -->
  <path
    d="M16 4L6 8.2v7.8c0 6.3 4.3 12.2 10 13.5 5.7-1.3 10-7.2 10-13.5V8.2L16 4z"
    fill="rgba(201,168,76,0.1)"
  />
  <!-- Stylized "A" -->
  <path
    d="M16 8L10 24h2.5l1.2-3h4.6l1.2 3H22L16 8zm0 5.5l1.5 5h-3l1.5-5z"
    fill="#C9A84C"
  />
</svg>
